M48
;DRILL file {kicad (2015-04-22 BZR 5620)-product} date 02/01/2016 09:16:26
;FORMAT={-:-/ absolute / metric / decimal}
FMAT,2
METRIC,TZ
T1C0.635
T2C1.016
%
G90
G05
M71
T1
X199.771Y-120.459
X205.232Y-116.205
X208.28Y-113.157
X208.343Y-109.22
X209.232Y-112.268
X210.248Y-117.158
X210.82Y-118.745
X211.137Y-109.664
X211.137Y-125.349
X211.963Y-122.047
T2
X202.565Y-103.632
X202.565Y-106.172
X202.565Y-108.712
X202.565Y-111.252
X202.565Y-113.792
X202.565Y-116.332
X213.995Y-103.632
X213.995Y-106.172
X213.995Y-108.712
X213.995Y-111.252
X213.995Y-113.792
X213.995Y-116.332
T0
M30
