G04 #@! TF.FileFunction,Legend,Top*
%FSLAX46Y46*%
G04 Gerber Fmt 4.6, Leading zero omitted, Abs format (unit mm)*
G04 Created by KiCad (PCBNEW (2015-04-22 BZR 5620)-product) date 02/01/2016 09:16:18*
%MOMM*%
G01*
G04 APERTURE LIST*
%ADD10C,0.100000*%
%ADD11C,0.250000*%
%ADD12C,0.200000*%
%ADD13C,0.127000*%
%ADD14C,0.190500*%
%ADD15C,0.400000*%
%ADD16C,0.150000*%
%ADD17C,0.125000*%
G04 APERTURE END LIST*
D10*
D11*
X216297048Y-114244381D02*
X216297048Y-113244381D01*
X216773238Y-114244381D02*
X216773238Y-113244381D01*
X217344667Y-114244381D01*
X217344667Y-113244381D01*
X217678000Y-113244381D02*
X218249429Y-113244381D01*
X217963714Y-114244381D02*
X217963714Y-113244381D01*
X218535143Y-113339619D02*
X218582762Y-113292000D01*
X218678000Y-113244381D01*
X218916096Y-113244381D01*
X219011334Y-113292000D01*
X219058953Y-113339619D01*
X219106572Y-113434857D01*
X219106572Y-113530095D01*
X219058953Y-113672952D01*
X218487524Y-114244381D01*
X219106572Y-114244381D01*
X197501048Y-114244381D02*
X197501048Y-113244381D01*
X197977238Y-114244381D02*
X197977238Y-113244381D01*
X198548667Y-114244381D01*
X198548667Y-113244381D01*
X198882000Y-113244381D02*
X199453429Y-113244381D01*
X199167714Y-114244381D02*
X199167714Y-113244381D01*
X200310572Y-114244381D02*
X199739143Y-114244381D01*
X200024857Y-114244381D02*
X200024857Y-113244381D01*
X199929619Y-113387238D01*
X199834381Y-113482476D01*
X199739143Y-113530095D01*
X192000286Y-102941429D02*
X192762191Y-102941429D01*
X192381239Y-103322381D02*
X192381239Y-102560476D01*
X193143143Y-103322381D02*
X193666953Y-102655714D01*
X193143143Y-102655714D02*
X193666953Y-103322381D01*
X186436095Y-108021429D02*
X187198000Y-108021429D01*
X186817048Y-108402381D02*
X186817048Y-107640476D01*
X187578952Y-107735714D02*
X187817047Y-108402381D01*
X188055143Y-107735714D02*
X187817047Y-108402381D01*
X187721809Y-108640476D01*
X187674190Y-108688095D01*
X187578952Y-108735714D01*
X194032286Y-108275429D02*
X194794191Y-108275429D01*
X194413239Y-108656381D02*
X194413239Y-107894476D01*
X195175143Y-107989714D02*
X195698953Y-107989714D01*
X195175143Y-108656381D01*
X195698953Y-108656381D01*
X188468000Y-108204000D02*
X189230000Y-108966000D01*
X188468000Y-108204000D02*
X189230000Y-107442000D01*
X192786000Y-103886000D02*
X193548000Y-104648000D01*
X192786000Y-103886000D02*
X192024000Y-104648000D01*
X192024000Y-108204000D02*
X188468000Y-108204000D01*
X192786000Y-107442000D02*
X192786000Y-103886000D01*
X193006000Y-108204000D02*
G75*
G03X193006000Y-108204000I-220000J0D01*
G01*
X193504420Y-108204000D02*
G75*
G03X193504420Y-108204000I-718420J0D01*
G01*
D12*
X222250000Y-101981000D02*
X231386000Y-101981000D01*
D13*
X220068143Y-104237786D02*
X220207000Y-104723786D01*
X220345857Y-104376643D01*
X220484714Y-104723786D01*
X220623571Y-104237786D01*
X220831857Y-104237786D02*
X220970714Y-104723786D01*
X221109571Y-104376643D01*
X221248428Y-104723786D01*
X221387285Y-104237786D01*
X221595571Y-104237786D02*
X221734428Y-104723786D01*
X221873285Y-104376643D01*
X222012142Y-104723786D01*
X222150999Y-104237786D01*
X222428713Y-104654357D02*
X222463428Y-104689071D01*
X222428713Y-104723786D01*
X222393999Y-104689071D01*
X222428713Y-104654357D01*
X222428713Y-104723786D01*
X223088285Y-104689071D02*
X223018856Y-104723786D01*
X222879999Y-104723786D01*
X222810571Y-104689071D01*
X222775856Y-104654357D01*
X222741142Y-104584929D01*
X222741142Y-104376643D01*
X222775856Y-104307214D01*
X222810571Y-104272500D01*
X222879999Y-104237786D01*
X223018856Y-104237786D01*
X223088285Y-104272500D01*
X223400713Y-104723786D02*
X223400713Y-104237786D01*
X223400713Y-104376643D02*
X223435428Y-104307214D01*
X223470142Y-104272500D01*
X223539571Y-104237786D01*
X223608999Y-104237786D01*
X224164428Y-104723786D02*
X224164428Y-104341929D01*
X224129714Y-104272500D01*
X224060285Y-104237786D01*
X223921428Y-104237786D01*
X223851999Y-104272500D01*
X224164428Y-104689071D02*
X224094999Y-104723786D01*
X223921428Y-104723786D01*
X223851999Y-104689071D01*
X223817285Y-104619643D01*
X223817285Y-104550214D01*
X223851999Y-104480786D01*
X223921428Y-104446071D01*
X224094999Y-104446071D01*
X224164428Y-104411357D01*
X224476856Y-104689071D02*
X224546285Y-104723786D01*
X224685142Y-104723786D01*
X224754570Y-104689071D01*
X224789285Y-104619643D01*
X224789285Y-104584929D01*
X224754570Y-104515500D01*
X224685142Y-104480786D01*
X224580999Y-104480786D01*
X224511570Y-104446071D01*
X224476856Y-104376643D01*
X224476856Y-104341929D01*
X224511570Y-104272500D01*
X224580999Y-104237786D01*
X224685142Y-104237786D01*
X224754570Y-104272500D01*
X225101713Y-104723786D02*
X225101713Y-103994786D01*
X225414142Y-104723786D02*
X225414142Y-104341929D01*
X225379428Y-104272500D01*
X225309999Y-104237786D01*
X225205856Y-104237786D01*
X225136428Y-104272500D01*
X225101713Y-104307214D01*
X225761284Y-104446071D02*
X226316713Y-104446071D01*
X226663855Y-104723786D02*
X226663855Y-103994786D01*
X226663855Y-104272500D02*
X226733284Y-104237786D01*
X226872141Y-104237786D01*
X226941570Y-104272500D01*
X226976284Y-104307214D01*
X227010998Y-104376643D01*
X227010998Y-104584929D01*
X226976284Y-104654357D01*
X226941570Y-104689071D01*
X226872141Y-104723786D01*
X226733284Y-104723786D01*
X226663855Y-104689071D01*
X227635855Y-104723786D02*
X227635855Y-104341929D01*
X227601141Y-104272500D01*
X227531712Y-104237786D01*
X227392855Y-104237786D01*
X227323426Y-104272500D01*
X227635855Y-104689071D02*
X227566426Y-104723786D01*
X227392855Y-104723786D01*
X227323426Y-104689071D01*
X227288712Y-104619643D01*
X227288712Y-104550214D01*
X227323426Y-104480786D01*
X227392855Y-104446071D01*
X227566426Y-104446071D01*
X227635855Y-104411357D01*
X227982997Y-104237786D02*
X227982997Y-104723786D01*
X227982997Y-104307214D02*
X228017712Y-104272500D01*
X228087140Y-104237786D01*
X228191283Y-104237786D01*
X228260712Y-104272500D01*
X228295426Y-104341929D01*
X228295426Y-104723786D01*
X228954997Y-104237786D02*
X228954997Y-104827929D01*
X228920283Y-104897357D01*
X228885568Y-104932071D01*
X228816140Y-104966786D01*
X228711997Y-104966786D01*
X228642568Y-104932071D01*
X228954997Y-104689071D02*
X228885568Y-104723786D01*
X228746711Y-104723786D01*
X228677283Y-104689071D01*
X228642568Y-104654357D01*
X228607854Y-104584929D01*
X228607854Y-104376643D01*
X228642568Y-104307214D01*
X228677283Y-104272500D01*
X228746711Y-104237786D01*
X228885568Y-104237786D01*
X228954997Y-104272500D01*
X229302139Y-104654357D02*
X229336854Y-104689071D01*
X229302139Y-104723786D01*
X229267425Y-104689071D01*
X229302139Y-104654357D01*
X229302139Y-104723786D01*
X229961711Y-104689071D02*
X229892282Y-104723786D01*
X229753425Y-104723786D01*
X229683997Y-104689071D01*
X229649282Y-104654357D01*
X229614568Y-104584929D01*
X229614568Y-104376643D01*
X229649282Y-104307214D01*
X229683997Y-104272500D01*
X229753425Y-104237786D01*
X229892282Y-104237786D01*
X229961711Y-104272500D01*
X230378282Y-104723786D02*
X230308854Y-104689071D01*
X230274139Y-104654357D01*
X230239425Y-104584929D01*
X230239425Y-104376643D01*
X230274139Y-104307214D01*
X230308854Y-104272500D01*
X230378282Y-104237786D01*
X230482425Y-104237786D01*
X230551854Y-104272500D01*
X230586568Y-104307214D01*
X230621282Y-104376643D01*
X230621282Y-104584929D01*
X230586568Y-104654357D01*
X230551854Y-104689071D01*
X230482425Y-104723786D01*
X230378282Y-104723786D01*
X230933710Y-104723786D02*
X230933710Y-104237786D01*
X230933710Y-104307214D02*
X230968425Y-104272500D01*
X231037853Y-104237786D01*
X231141996Y-104237786D01*
X231211425Y-104272500D01*
X231246139Y-104341929D01*
X231246139Y-104723786D01*
X231246139Y-104341929D02*
X231280853Y-104272500D01*
X231350282Y-104237786D01*
X231454425Y-104237786D01*
X231523853Y-104272500D01*
X231558568Y-104341929D01*
X231558568Y-104723786D01*
D14*
X222894918Y-101004667D02*
X223257775Y-101004667D01*
X222786631Y-101290381D02*
X223165631Y-100290381D01*
X223294631Y-101290381D01*
X223881156Y-101242762D02*
X223802632Y-101290381D01*
X223657489Y-101290381D01*
X223590870Y-101242762D01*
X223560537Y-101195143D01*
X223536156Y-101099905D01*
X223571870Y-100814190D01*
X223620061Y-100718952D01*
X223662298Y-100671333D01*
X223740823Y-100623714D01*
X223885966Y-100623714D01*
X223952584Y-100671333D01*
X224534299Y-101242762D02*
X224455775Y-101290381D01*
X224310632Y-101290381D01*
X224244013Y-101242762D01*
X224213680Y-101195143D01*
X224189299Y-101099905D01*
X224225013Y-100814190D01*
X224273204Y-100718952D01*
X224315441Y-100671333D01*
X224393966Y-100623714D01*
X224539109Y-100623714D01*
X224605727Y-100671333D01*
X225151156Y-101242762D02*
X225072632Y-101290381D01*
X224927489Y-101290381D01*
X224860871Y-101242762D01*
X224836490Y-101147524D01*
X224884109Y-100766571D01*
X224932299Y-100671333D01*
X225010823Y-100623714D01*
X225155966Y-100623714D01*
X225222584Y-100671333D01*
X225246966Y-100766571D01*
X225235061Y-100861810D01*
X224860299Y-100957048D01*
X225616918Y-101290381D02*
X225550299Y-101242762D01*
X225525919Y-101147524D01*
X225633061Y-100290381D01*
X226487204Y-101004667D02*
X226850061Y-101004667D01*
X226378917Y-101290381D02*
X226757917Y-100290381D01*
X226886917Y-101290381D01*
X227140918Y-101290381D02*
X227265918Y-100290381D01*
X227447346Y-100290381D01*
X227550251Y-100338000D01*
X227610918Y-100433238D01*
X227635299Y-100528476D01*
X227647775Y-100718952D01*
X227629918Y-100861810D01*
X227569822Y-101052286D01*
X227521633Y-101147524D01*
X227437156Y-101242762D01*
X227322346Y-101290381D01*
X227140918Y-101290381D01*
X227955346Y-100290381D02*
X228338346Y-101290381D01*
X228463346Y-100290381D02*
X227830346Y-101290381D01*
X228991489Y-101290381D02*
X228628632Y-101290381D01*
X228753632Y-100290381D01*
X229297917Y-100290381D02*
X229769631Y-100290381D01*
X229468012Y-100671333D01*
X229576870Y-100671333D01*
X229643489Y-100718952D01*
X229673823Y-100766571D01*
X229698203Y-100861810D01*
X229668441Y-101099905D01*
X229620251Y-101195143D01*
X229578013Y-101242762D01*
X229499489Y-101290381D01*
X229281774Y-101290381D01*
X229215156Y-101242762D01*
X229184822Y-101195143D01*
X230381108Y-100623714D02*
X230297774Y-101290381D01*
X230247298Y-100242762D02*
X229976584Y-100957048D01*
X230448298Y-100957048D01*
X230749345Y-100290381D02*
X231221059Y-100290381D01*
X230919440Y-100671333D01*
X231028298Y-100671333D01*
X231094917Y-100718952D01*
X231125251Y-100766571D01*
X231149631Y-100861810D01*
X231119869Y-101099905D01*
X231071679Y-101195143D01*
X231029441Y-101242762D01*
X230950917Y-101290381D01*
X230733202Y-101290381D01*
X230666584Y-101242762D01*
X230636250Y-101195143D01*
D10*
X220844000Y-101292000D02*
X220844000Y-101092000D01*
X220844000Y-101092000D02*
X221044000Y-101092000D01*
X221044000Y-101092000D02*
X221044000Y-101292000D01*
X221044000Y-101292000D02*
X220844000Y-101292000D01*
X220844000Y-101792000D02*
X220844000Y-101592000D01*
X220844000Y-101592000D02*
X221044000Y-101592000D01*
X221044000Y-101592000D02*
X221044000Y-101792000D01*
X221044000Y-101792000D02*
X220844000Y-101792000D01*
X220844000Y-102292000D02*
X220844000Y-102092000D01*
X220844000Y-102092000D02*
X221044000Y-102092000D01*
X221044000Y-102092000D02*
X221044000Y-102292000D01*
X221044000Y-102292000D02*
X220844000Y-102292000D01*
D15*
X220044000Y-103392000D02*
X220944000Y-103392000D01*
X220944000Y-103392000D02*
X220944000Y-102692000D01*
X220044000Y-100992000D02*
X220044000Y-103392000D01*
X218744000Y-100992000D02*
X220044000Y-100992000D01*
X222144000Y-100892000D02*
G75*
G03X218744000Y-100892000I-1700000J0D01*
G01*
D16*
X201295000Y-102412000D02*
X201295000Y-117602000D01*
X201295000Y-117602000D02*
X203835000Y-117602000D01*
X203835000Y-117602000D02*
X203835000Y-102412000D01*
X201295000Y-102402000D02*
X203835000Y-102402000D01*
X212725000Y-102412000D02*
X212725000Y-117602000D01*
X212725000Y-117602000D02*
X215265000Y-117602000D01*
X215265000Y-117602000D02*
X215265000Y-102412000D01*
X212725000Y-102402000D02*
X215265000Y-102402000D01*
X204152500Y-122491500D02*
X203390500Y-122491500D01*
X203771500Y-122110500D02*
X203771500Y-122872500D01*
X204025500Y-124777500D02*
X200215500Y-124777500D01*
X204787500Y-120967500D02*
X204787500Y-124015500D01*
X204025500Y-124777500D02*
X204787500Y-124015500D01*
X204025500Y-120205500D02*
X200215500Y-120205500D01*
X204025500Y-120205500D02*
X204787500Y-120967500D01*
X200469500Y-122618500D02*
X200469500Y-122364500D01*
X200596500Y-121856500D02*
X200596500Y-123126500D01*
X200723500Y-123380500D02*
X200723500Y-121602500D01*
X200850500Y-123634500D02*
X200850500Y-121348500D01*
X200977500Y-121221500D02*
X200977500Y-123761500D01*
X201104500Y-123888500D02*
X201104500Y-121094500D01*
X201231500Y-120967500D02*
X201231500Y-124015500D01*
X201358500Y-120840500D02*
X201358500Y-124142500D01*
X204533500Y-122491500D02*
G75*
G03X204533500Y-122491500I-2032000J0D01*
G01*
X200215500Y-120205500D02*
X200215500Y-124777500D01*
X207716500Y-116610500D02*
X208716500Y-116610500D01*
X208716500Y-114910500D02*
X207716500Y-114910500D01*
X208716500Y-123991000D02*
X207716500Y-123991000D01*
X207716500Y-125691000D02*
X208716500Y-125691000D01*
X206471245Y-117873000D02*
G75*
G03X206471245Y-117873000I-161245J0D01*
G01*
X209780000Y-118023000D02*
X209780000Y-123023000D01*
X209780000Y-123023000D02*
X206780000Y-123023000D01*
X206780000Y-123023000D02*
X206780000Y-118023000D01*
X206780000Y-118023000D02*
X209780000Y-118023000D01*
X223517460Y-109641640D02*
X223258380Y-110202980D01*
X223258380Y-110202980D02*
X223796860Y-110721140D01*
X223796860Y-110721140D02*
X224317560Y-110451900D01*
X224317560Y-110451900D02*
X224596960Y-110611920D01*
X226037140Y-110591600D02*
X226367340Y-110401100D01*
X226367340Y-110401100D02*
X226806760Y-110731300D01*
X226806760Y-110731300D02*
X227279200Y-110241080D01*
X227279200Y-110241080D02*
X226997260Y-109761020D01*
X226997260Y-109761020D02*
X227187760Y-109291120D01*
X227187760Y-109291120D02*
X227797360Y-109103160D01*
X227797360Y-109103160D02*
X227797360Y-108422440D01*
X227797360Y-108422440D02*
X227238560Y-108282740D01*
X227238560Y-108282740D02*
X227037900Y-107711240D01*
X227037900Y-107711240D02*
X227307140Y-107241340D01*
X227307140Y-107241340D02*
X226837240Y-106730800D01*
X226837240Y-106730800D02*
X226319080Y-106992420D01*
X226319080Y-106992420D02*
X225849180Y-106791760D01*
X225849180Y-106791760D02*
X225679000Y-106250740D01*
X225679000Y-106250740D02*
X224988120Y-106232960D01*
X224988120Y-106232960D02*
X224777300Y-106781600D01*
X224777300Y-106781600D02*
X224358200Y-106951780D01*
X224358200Y-106951780D02*
X223807020Y-106682540D01*
X223807020Y-106682540D02*
X223288860Y-107210860D01*
X223288860Y-107210860D02*
X223537780Y-107751880D01*
X223537780Y-107751880D02*
X223367600Y-108231940D01*
X223367600Y-108231940D02*
X222818960Y-108331000D01*
X222818960Y-108331000D02*
X222808800Y-109032040D01*
X222808800Y-109032040D02*
X223367600Y-109232700D01*
X223367600Y-109232700D02*
X223507300Y-109631480D01*
X225648520Y-109611160D02*
X225948240Y-109461300D01*
X225948240Y-109461300D02*
X226148900Y-109263180D01*
X226148900Y-109263180D02*
X226298760Y-108861860D01*
X226298760Y-108861860D02*
X226298760Y-108463080D01*
X226298760Y-108463080D02*
X226148900Y-108112560D01*
X226148900Y-108112560D02*
X225696780Y-107762040D01*
X225696780Y-107762040D02*
X225247200Y-107711240D01*
X225247200Y-107711240D02*
X224848420Y-107812840D01*
X224848420Y-107812840D02*
X224447100Y-108160820D01*
X224447100Y-108160820D02*
X224297240Y-108612940D01*
X224297240Y-108612940D02*
X224348040Y-109110780D01*
X224348040Y-109110780D02*
X224596960Y-109413040D01*
X224596960Y-109413040D02*
X224947480Y-109611160D01*
X224947480Y-109611160D02*
X224596960Y-110611920D01*
X225648520Y-109611160D02*
X226047300Y-110611920D01*
D11*
X221944000Y-102544381D02*
X222201143Y-102544381D01*
X222329715Y-102592000D01*
X222458286Y-102687238D01*
X222522572Y-102877714D01*
X222522572Y-103211048D01*
X222458286Y-103401524D01*
X222329715Y-103496762D01*
X222201143Y-103544381D01*
X221944000Y-103544381D01*
X221815429Y-103496762D01*
X221686858Y-103401524D01*
X221622572Y-103211048D01*
X221622572Y-102877714D01*
X221686858Y-102687238D01*
X221815429Y-102592000D01*
X221944000Y-102544381D01*
X223036858Y-103258667D02*
X223679715Y-103258667D01*
X222908286Y-103544381D02*
X223358286Y-102544381D01*
X223808286Y-103544381D01*
X224258287Y-103544381D02*
X224258287Y-102544381D01*
X224579715Y-102544381D01*
X224772572Y-102592000D01*
X224901144Y-102687238D01*
X224965429Y-102782476D01*
X225029715Y-102972952D01*
X225029715Y-103115810D01*
X224965429Y-103306286D01*
X224901144Y-103401524D01*
X224772572Y-103496762D01*
X224579715Y-103544381D01*
X224258287Y-103544381D01*
X225544001Y-103496762D02*
X225736858Y-103544381D01*
X226058287Y-103544381D01*
X226186858Y-103496762D01*
X226251144Y-103449143D01*
X226315429Y-103353905D01*
X226315429Y-103258667D01*
X226251144Y-103163429D01*
X226186858Y-103115810D01*
X226058287Y-103068190D01*
X225801144Y-103020571D01*
X225672572Y-102972952D01*
X225608287Y-102925333D01*
X225544001Y-102830095D01*
X225544001Y-102734857D01*
X225608287Y-102639619D01*
X225672572Y-102592000D01*
X225801144Y-102544381D01*
X226122572Y-102544381D01*
X226315429Y-102592000D01*
X226701143Y-102544381D02*
X227472572Y-102544381D01*
X227086858Y-103544381D02*
X227086858Y-102544381D01*
X228179714Y-102544381D02*
X228436857Y-102544381D01*
X228565429Y-102592000D01*
X228694000Y-102687238D01*
X228758286Y-102877714D01*
X228758286Y-103211048D01*
X228694000Y-103401524D01*
X228565429Y-103496762D01*
X228436857Y-103544381D01*
X228179714Y-103544381D01*
X228051143Y-103496762D01*
X227922572Y-103401524D01*
X227858286Y-103211048D01*
X227858286Y-102877714D01*
X227922572Y-102687238D01*
X228051143Y-102592000D01*
X228179714Y-102544381D01*
X229594000Y-102544381D02*
X229851143Y-102544381D01*
X229979715Y-102592000D01*
X230108286Y-102687238D01*
X230172572Y-102877714D01*
X230172572Y-103211048D01*
X230108286Y-103401524D01*
X229979715Y-103496762D01*
X229851143Y-103544381D01*
X229594000Y-103544381D01*
X229465429Y-103496762D01*
X229336858Y-103401524D01*
X229272572Y-103211048D01*
X229272572Y-102877714D01*
X229336858Y-102687238D01*
X229465429Y-102592000D01*
X229594000Y-102544381D01*
X231394001Y-103544381D02*
X230751144Y-103544381D01*
X230751144Y-102544381D01*
D17*
X200986572Y-101690714D02*
X200986572Y-100928714D01*
X201422000Y-101690714D02*
X201095429Y-101255286D01*
X201422000Y-100928714D02*
X200986572Y-101364143D01*
X202147714Y-101690714D02*
X201712286Y-101690714D01*
X201930000Y-101690714D02*
X201930000Y-100928714D01*
X201857429Y-101037571D01*
X201784857Y-101110143D01*
X201712286Y-101146429D01*
X214448572Y-101690714D02*
X214448572Y-100928714D01*
X214884000Y-101690714D02*
X214557429Y-101255286D01*
X214884000Y-100928714D02*
X214448572Y-101364143D01*
X215174286Y-101001286D02*
X215210572Y-100965000D01*
X215283143Y-100928714D01*
X215464572Y-100928714D01*
X215537143Y-100965000D01*
X215573429Y-101001286D01*
X215609714Y-101073857D01*
X215609714Y-101146429D01*
X215573429Y-101255286D01*
X215138000Y-101690714D01*
X215609714Y-101690714D01*
D13*
X202374500Y-125748143D02*
X202338214Y-125784429D01*
X202229357Y-125820714D01*
X202156786Y-125820714D01*
X202047929Y-125784429D01*
X201975357Y-125711857D01*
X201939072Y-125639286D01*
X201902786Y-125494143D01*
X201902786Y-125385286D01*
X201939072Y-125240143D01*
X201975357Y-125167571D01*
X202047929Y-125095000D01*
X202156786Y-125058714D01*
X202229357Y-125058714D01*
X202338214Y-125095000D01*
X202374500Y-125131286D01*
X203100214Y-125820714D02*
X202664786Y-125820714D01*
X202882500Y-125820714D02*
X202882500Y-125058714D01*
X202809929Y-125167571D01*
X202737357Y-125240143D01*
X202664786Y-125276429D01*
X208026000Y-114445143D02*
X207989714Y-114481429D01*
X207880857Y-114517714D01*
X207808286Y-114517714D01*
X207699429Y-114481429D01*
X207626857Y-114408857D01*
X207590572Y-114336286D01*
X207554286Y-114191143D01*
X207554286Y-114082286D01*
X207590572Y-113937143D01*
X207626857Y-113864571D01*
X207699429Y-113792000D01*
X207808286Y-113755714D01*
X207880857Y-113755714D01*
X207989714Y-113792000D01*
X208026000Y-113828286D01*
X208316286Y-113828286D02*
X208352572Y-113792000D01*
X208425143Y-113755714D01*
X208606572Y-113755714D01*
X208679143Y-113792000D01*
X208715429Y-113828286D01*
X208751714Y-113900857D01*
X208751714Y-113973429D01*
X208715429Y-114082286D01*
X208280000Y-114517714D01*
X208751714Y-114517714D01*
X208026000Y-126891143D02*
X207989714Y-126927429D01*
X207880857Y-126963714D01*
X207808286Y-126963714D01*
X207699429Y-126927429D01*
X207626857Y-126854857D01*
X207590572Y-126782286D01*
X207554286Y-126637143D01*
X207554286Y-126528286D01*
X207590572Y-126383143D01*
X207626857Y-126310571D01*
X207699429Y-126238000D01*
X207808286Y-126201714D01*
X207880857Y-126201714D01*
X207989714Y-126238000D01*
X208026000Y-126274286D01*
X208280000Y-126201714D02*
X208751714Y-126201714D01*
X208497714Y-126492000D01*
X208606572Y-126492000D01*
X208679143Y-126528286D01*
X208715429Y-126564571D01*
X208751714Y-126637143D01*
X208751714Y-126818571D01*
X208715429Y-126891143D01*
X208679143Y-126927429D01*
X208606572Y-126963714D01*
X208388857Y-126963714D01*
X208316286Y-126927429D01*
X208280000Y-126891143D01*
X210466214Y-120786071D02*
X211083071Y-120786071D01*
X211155643Y-120749786D01*
X211191929Y-120713500D01*
X211228214Y-120640929D01*
X211228214Y-120495786D01*
X211191929Y-120423214D01*
X211155643Y-120386929D01*
X211083071Y-120350643D01*
X210466214Y-120350643D01*
X211228214Y-119588643D02*
X211228214Y-120024071D01*
X211228214Y-119806357D02*
X210466214Y-119806357D01*
X210575071Y-119878928D01*
X210647643Y-119951500D01*
X210683929Y-120024071D01*
M02*
